<svg width="128" height="128" viewBox="0 0 128 128" fill="none" xmlns="http://www.w3.org/2000/svg" role="img" aria-labelledby="title desc">
  <title id="title">Acrilcenter mark</title>
  <desc id="desc">Minimal translucent acrylic symbol for Acrilcenter.</desc>
  <defs>
    <linearGradient id="markGlass" x1="22" y1="16" x2="108" y2="116" gradientUnits="userSpaceOnUse">
      <stop offset="0" stop-color="#FFFFFF" stop-opacity="0.92"/>
      <stop offset="0.44" stop-color="#C8F7FF" stop-opacity="0.52"/>
      <stop offset="1" stop-color="#F7FBFF" stop-opacity="0.18"/>
    </linearGradient>
    <linearGradient id="edgeLight" x1="25" y1="21" x2="104" y2="107" gradientUnits="userSpaceOnUse">
      <stop stop-color="#FFFFFF"/>
      <stop offset="0.42" stop-color="#DDFBFF"/>
      <stop offset="1" stop-color="#87929E"/>
    </linearGradient>
    <filter id="softGlow" x="-18" y="-18" width="164" height="164" filterUnits="userSpaceOnUse" color-interpolation-filters="sRGB">
      <feFlood flood-opacity="0" result="BackgroundImageFix"/>
      <feGaussianBlur in="BackgroundImageFix" stdDeviation="0"/>
      <feComposite in2="SourceAlpha" operator="in" result="effect1_backgroundBlur"/>
      <feColorMatrix in="SourceAlpha" type="matrix" values="0 0 0 0 0.784 0 0 0 0 0.969 0 0 0 0 1 0 0 0 0.22 0"/>
      <feOffset dy="8"/>
      <feGaussianBlur stdDeviation="16"/>
      <feBlend in2="effect1_backgroundBlur" result="effect2_dropShadow"/>
      <feBlend in="SourceGraphic" in2="effect2_dropShadow" result="shape"/>
    </filter>
  </defs>
  <rect width="128" height="128" rx="30" fill="#090A0C"/>
  <g filter="url(#softGlow)">
    <path d="M28 25.5C28 17.4919 34.4919 11 42.5 11H92.5C100.508 11 107 17.4919 107 25.5V75.5C107 83.5081 100.508 90 92.5 90H42.5C34.4919 90 28 83.5081 28 75.5V25.5Z" fill="url(#markGlass)" fill-opacity="0.78"/>
    <path d="M28.75 25.5C28.75 17.9061 34.9061 11.75 42.5 11.75H92.5C100.094 11.75 106.25 17.9061 106.25 25.5V75.5C106.25 83.0939 100.094 89.25 92.5 89.25H42.5C34.9061 89.25 28.75 83.0939 28.75 75.5V25.5Z" stroke="url(#edgeLight)" stroke-width="1.5"/>
    <path d="M46 44.5C46 38.1487 51.1487 33 57.5 33H86.5C92.8513 33 98 38.1487 98 44.5V73.5C98 79.8513 92.8513 85 86.5 85H57.5C51.1487 85 46 79.8513 46 73.5V44.5Z" fill="#090A0C" fill-opacity="0.24"/>
    <path d="M46.75 44.5C46.75 38.5629 51.5629 33.75 57.5 33.75H86.5C92.4371 33.75 97.25 38.5629 97.25 44.5V73.5C97.25 79.4371 92.4371 84.25 86.5 84.25H57.5C51.5629 84.25 46.75 79.4371 46.75 73.5V44.5Z" stroke="#F7FBFF" stroke-opacity="0.42" stroke-width="1.5"/>
    <path d="M29 96H86C94.2843 96 101 102.716 101 111V112H44C35.7157 112 29 105.284 29 97V96Z" fill="#C8F7FF" fill-opacity="0.15"/>
    <path d="M29 96.75H86C93.8701 96.75 100.25 103.13 100.25 111V111.25H44C36.1299 111.25 29.75 104.87 29.75 97V96.75Z" stroke="#F7FBFF" stroke-opacity="0.22" stroke-width="1.5"/>
  </g>
</svg>
